HIERARCHY
ROOT Hips
{
    OFFSET 0.000000 0.000000 0.000000
    CHANNELS 6 Xposition Yposition Zposition Zrotation Xrotation Yrotation
    JOINT Spine
    {
        OFFSET -0.000000 7.810951 0.000000
        CHANNELS 3 Zrotation Xrotation Yrotation
        JOINT Spine1
        {
            OFFSET -0.000000 18.868288 0.000000
            CHANNELS 3 Zrotation Xrotation Yrotation
            JOINT Neck
            {
                OFFSET -0.000000 18.790800 1.708255
                CHANNELS 3 Zrotation Xrotation Yrotation
                JOINT Head
                {
                    OFFSET -0.000000 13.335769 -1.905110
                    CHANNELS 3 Zrotation Xrotation Yrotation
                    End Site
                    {
                        OFFSET -0.000000 23.813873 0.000000
                    }
                }
            }
            JOINT LeftShoulder
            {
                OFFSET 3.868973 15.461964 -0.252686
                CHANNELS 3 Zrotation Xrotation Yrotation
                JOINT LeftArm
                {
                    OFFSET 15.258958 0.000000 0.000000
                    CHANNELS 3 Zrotation Xrotation Yrotation
                    JOINT LeftForeArm
                    {
                        OFFSET 27.600050 0.000000 0.000000
                        CHANNELS 3 Zrotation Xrotation Yrotation
                        JOINT LeftHand
                        {
                            OFFSET 23.737446 0.000000 0.000000
                            CHANNELS 3 Zrotation Xrotation Yrotation
                            End Site
                            {
                                OFFSET 14.288324 0.000000 0.000000
                            }
                        }
                    }
                }
            }
            JOINT RightShoulder
            {
                OFFSET -3.750262 15.461964 -0.252686
                CHANNELS 3 Zrotation Xrotation Yrotation
                JOINT RightArm
                {
                    OFFSET -15.258958 0.000000 0.000000
                    CHANNELS 3 Zrotation Xrotation Yrotation
                    JOINT RightForeArm
                    {
                        OFFSET -27.600050 0.000000 0.000000
                        CHANNELS 3 Zrotation Xrotation Yrotation
                        JOINT RightHand
                        {
                            OFFSET -23.737446 0.000000 0.000000
                            CHANNELS 3 Zrotation Xrotation Yrotation
                            End Site
                            {
                                OFFSET -14.288324 0.000000 0.000000
                            }
                        }
                    }
                }
            }
        }
    }
    JOINT LeftUpLeg
    {
        OFFSET 9.525549 0.000000 0.000000
        CHANNELS 3 Zrotation Xrotation Yrotation
        JOINT LeftLeg
        {
            OFFSET -0.000000 -45.198063 0.000000
            CHANNELS 3 Zrotation Xrotation Yrotation
            JOINT LeftFoot
            {
                OFFSET -0.000000 -37.850700 0.000000
                CHANNELS 3 Zrotation Xrotation Yrotation
                JOINT LeftToeBase
                {
                    OFFSET -0.000000 -6.191607 14.288324
                    CHANNELS 3 Zrotation Xrotation Yrotation
                    End Site
                    {
                        OFFSET -0.000000 0.000000 3.810220
                    }
                }
            }
        }
    }
    JOINT RightUpLeg
    {
        OFFSET -9.525549 0.000000 0.000000
        CHANNELS 3 Zrotation Xrotation Yrotation
        JOINT RightLeg
        {
            OFFSET -0.000000 -45.198063 0.000000
            CHANNELS 3 Zrotation Xrotation Yrotation
            JOINT RightFoot
            {
                OFFSET -0.000000 -37.850700 0.000000
                CHANNELS 3 Zrotation Xrotation Yrotation
                JOINT RightToeBase
                {
                    OFFSET -0.000000 -6.191607 14.288324
                    CHANNELS 3 Zrotation Xrotation Yrotation
                    End Site
                    {
                        OFFSET -0.000000 0.000000 3.810220
                    }
                }
            }
        }
    }
}
MOTION
Frames:    9
Frame Time:    0.008333
-1.349264    89.345093    50.197063    -1.726554    -0.664875    -177.372757    -0.736702    -7.499709    2.464037    1.165100    8.742930    2.423290    -0.069672    21.123734    11.295887    0.673508    -7.829761    11.885296    4.315993    13.439753    4.795342    -71.526749    28.116213    -17.982666    -2.333709    -8.592387    -10.860793    -5.147549    -9.208922    8.931177    -11.179595    6.752683    0.536790    57.127071    37.532787    21.445618    -6.545665    -8.539014    39.631001    4.446056    -6.475327    -7.224001    3.266074    -18.485266    0.485674    -6.207001    20.940462    3.833367    1.770955    -9.449420    22.291109    0.000000    0.000000    0.000000    -1.099566    7.981998    -1.184103    5.013752    -2.994228    6.427738    -7.406903    -9.288539    -24.445183    0.000000    0.000000    0.000000    
-1.354704    89.301506    49.690590    -1.726971    -0.640495    -177.598495    -0.729694    -7.498862    2.498736    1.140961    8.750009    2.459286    -0.193126    21.148272    11.438937    0.697003    -7.866488    12.033219    4.241531    13.324430    4.931535    -71.591080    28.190985    -17.865931    -2.240238    -8.731722    -10.902929    -5.225267    -9.345717    8.923230    -11.217125    6.881490    0.581900    56.777435    37.663006    21.981842    -6.550522    -8.589446    39.783669    4.773743    -6.535277    -7.230435    3.080999    -18.456631    0.243539    -5.688794    18.843647    3.825992    1.375997    -9.037932    22.070583    0.000000    0.000000    0.000000    -1.058543    8.310056    -1.355561    4.937600    -2.961088    6.434694    -7.348260    -9.562242    -24.209240    0.000000    0.000000    0.000000    
-1.341517    89.254585    49.191006    -1.672030    -0.655871    -177.883453    -0.734839    -7.555788    2.566699    1.231145    8.817232    2.520323    -0.263344    21.236435    11.424114    0.540713    -8.028227    11.982644    4.148185    13.347247    5.015896    -71.642761    28.065973    -17.916210    -2.239148    -8.835505    -10.926370    -5.005470    -9.424901    8.742819    -11.322398    6.879173    0.590800    56.540558    37.802666    22.406050    -6.463376    -8.591382    39.938232    4.603316    -6.545194    -7.156753    3.008470    -18.484938    0.104849    -5.160409    16.823215    3.458591    0.947422    -8.528758    22.133368    0.000000    0.000000    0.000000    -1.010908    8.615582    -1.402864    4.953082    -2.986273    6.640179    -7.416940    -9.697359    -24.153852    0.000000    0.000000    0.000000    
-1.343305    89.214767    48.664421    -1.633206    -0.688857    -178.209930    -0.684868    -7.624223    2.624477    1.156325    8.743253    2.581731    -0.366001    21.184471    11.574398    0.680319    -7.744160    12.161699    4.098353    13.433022    5.101855    -71.716713    27.853334    -17.887932    -2.206555    -8.841541    -10.884740    -5.058614    -9.435778    8.850087    -11.262944    6.969121    0.740594    56.362030    37.990086    22.648891    -6.537574    -8.690709    40.191689    4.574083    -6.603503    -7.246041    2.888069    -18.449802    0.034944    -4.591780    14.747389    3.392531    0.605807    -7.936899    21.966770    0.000000    0.000000    0.000000    -0.991115    8.856637    -1.432561    4.956693    -2.876687    6.707246    -7.425515    -9.933335    -23.968159    0.000000    0.000000    0.000000    
-1.325986    89.141037    48.182159    -1.558067    -0.728030    -178.410538    -0.687707    -7.709773    2.606896    1.242588    8.901254    2.556554    -0.726071    20.786501    11.687967    1.098808    -7.396910    12.348568    4.003012    13.195217    5.253629    -71.767975    27.967545    -17.754082    -2.114517    -8.978720    -11.001917    -5.374727    -9.590907    8.861095    -11.425566    6.794501    0.834931    56.404640    37.961163    22.922358    -6.467866    -8.559187    40.260372    4.864832    -6.505241    -7.116023    2.818726    -18.509630    -0.105009    -4.096452    12.814574    3.450029    -0.016843    -7.461514    21.680843    0.000000    0.000000    0.000000    -0.902863    9.057368    -1.580117    4.940431    -2.697001    7.055162    -7.513802    -10.292515    -24.056341    0.000000    0.000000    0.000000    
-1.316295    89.080872    47.653553    -1.483379    -0.700014    -178.688705    -0.697570    -7.695004    2.632009    1.281138    8.860861    2.579692    -0.600378    20.981241    11.770691    0.732767    -7.604223    12.365846    3.986586    13.318507    5.338245    -71.868889    27.723053    -17.844000    -2.153845    -8.961596    -10.983657    -4.975811    -9.542983    8.775940    -11.389030    6.843616    0.902107    56.113689    38.244438    23.269199    -6.479512    -8.708369    40.483913    5.021833    -6.648478    -7.165106    2.770447    -18.434856    -0.280545    -3.652792    10.911569    3.527579    -0.006045    -7.100916    21.516436    0.000000    0.000000    0.000000    -0.810934    9.372477    -1.526389    4.884017    -2.599311    7.107588    -7.549681    -10.569726    -23.970819    0.000000    0.000000    0.000000    
-1.340387    89.018570    47.125740    -1.466849    -0.727370    -179.150940    -0.625957    -7.795226    2.737577    1.177363    8.963351    2.687963    -0.687536    20.877129    11.856238    0.749613    -7.546622    12.454618    3.944399    13.207761    5.487318    -71.878624    27.697121    -17.774651    -2.206267    -8.861448    -11.085534    -5.178270    -9.470243    8.886546    -11.433939    6.834084    0.961920    56.035751    38.385128    23.601580    -6.497708    -8.738884    40.652206    5.192037    -6.674877    -7.222008    2.695293    -18.338856    -0.441731    -3.199987    8.969468    3.672819    -0.172446    -6.633810    21.570610    0.000000    0.000000    0.000000    -0.869299    9.590923    -1.340710    4.912254    -2.457291    7.089635    -7.494863    -10.912208    -23.818556    0.000000    0.000000    0.000000    
-1.306146    88.943588    46.617706    -1.333329    -0.718843    -179.399963    -0.641121    -7.758332    2.732448    1.271383    8.932569    2.676644    -0.777269    20.798223    11.965280    0.794590    -7.468709    12.573244    3.909220    13.303638    5.495503    -71.877502    27.524839    -17.777933    -2.197667    -8.997069    -11.358773    -5.387914    -9.631502    9.001914    -11.470719    6.937582    0.954241    55.834435    38.475002    24.095264    -6.434450    -8.716516    40.814278    5.273729    -6.668659    -7.180417    2.761669    -18.333181    -0.535452    -2.804542    7.253721    3.765158    -0.216474    -6.324104    21.442625    0.000000    0.000000    0.000000    -0.701441    9.826674    -1.360119    4.894764    -2.256732    7.162246    -7.634019    -11.209838    -23.830429    0.000000    0.000000    0.000000    
-1.299525    88.867546    46.098331    -1.232364    -0.730116    -179.710999    -0.612792    -7.807389    2.763550    1.255488    8.946379    2.707165    -0.848643    20.676285    12.059317    0.935845    -7.310368    12.696395    3.951520    13.184415    5.580846    -71.961243    27.593403    -17.720160    -2.225379    -9.005772    -11.355026    -5.139841    -9.620635    8.936801    -11.407568    6.958266    1.011676    55.646080    38.698029    24.399418    -6.450241    -8.798998    40.973259    5.512782    -6.748418    -7.138323    2.818506    -18.289511    -0.796638    -2.557552    5.644125    4.100970    -0.586539    -6.189973    21.597364    0.000000    0.000000    0.000000    -0.578171    10.032461    -1.248554    4.766127    -2.053459    7.166452    -7.568586    -11.595027    -23.761824    0.000000    0.000000    0.000000    
